REM DIRINDEX 1\2,1\4,1\3\5,1\3\6,1\3\7
REM DIRNAME cjc081,folder01,folder02,folder03,folder04,folder05,folder06
TITLE ""
FILE "CD1Track24.mp3" MP3
  TRACK 01 AUDIO
    TITLE "0:"
    INDEX 01 00:00:00
  TRACK 02 AUDIO
    TITLE "5:cjc081_0397"
    INDEX 01 00:00:25
  TRACK 03 AUDIO
    TITLE "0:"
    INDEX 01 00:01:50
  TRACK 04 AUDIO
    TITLE "6:cjc081_0398"
    INDEX 01 00:02:22
  TRACK 05 AUDIO
    TITLE "0:"
    INDEX 01 00:05:16
  TRACK 06 AUDIO
    TITLE "5:cjc081_0399"
    INDEX 01 00:05:57
  TRACK 07 AUDIO
    TITLE "0:"
    INDEX 01 00:07:05
  TRACK 08 AUDIO
    TITLE "6:cjc081_0400"
    INDEX 01 00:07:47
  TRACK 09 AUDIO
    TITLE "0:"
    INDEX 01 00:10:00
  TRACK 10 AUDIO
    TITLE "5:cjc081_0401"
    INDEX 01 00:10:43
  TRACK 11 AUDIO
    TITLE "0:"
    INDEX 01 00:11:56
  TRACK 12 AUDIO
    TITLE "6:cjc081_0402"
    INDEX 01 00:12:26
  TRACK 13 AUDIO
    TITLE "0:"
    INDEX 01 00:13:45
  TRACK 14 AUDIO
    TITLE "5:cjc081_0403"
    INDEX 01 00:14:15
  TRACK 15 AUDIO
    TITLE "0:"
    INDEX 01 00:15:23
  TRACK 16 AUDIO
    TITLE "6:cjc081_0404"
    INDEX 01 00:15:72
  TRACK 17 AUDIO
    TITLE "0:"
    INDEX 01 00:18:05
  TRACK 18 AUDIO
    TITLE "5:cjc081_0405"
    INDEX 01 00:18:48
  TRACK 19 AUDIO
    TITLE "0:"
    INDEX 01 00:19:63
  TRACK 20 AUDIO
    TITLE "6:cjc081_0406"
    INDEX 01 00:20:34
  TRACK 21 AUDIO
    TITLE "0:"
    INDEX 01 00:21:58
  TRACK 22 AUDIO
    TITLE "5:cjc081_0407"
    INDEX 01 00:22:29
  TRACK 23 AUDIO
    TITLE "0:"
    INDEX 01 00:23:73
  TRACK 24 AUDIO
    TITLE "6:cjc081_0408"
    INDEX 01 00:24:41
  TRACK 25 AUDIO
    TITLE "0:"
    INDEX 01 00:27:26
  TRACK 26 AUDIO
    TITLE "5:cjc081_0409"
    INDEX 01 00:27:67
  TRACK 27 AUDIO
    TITLE "0:"
    INDEX 01 00:29:15
  TRACK 28 AUDIO
    TITLE "6:cjc081_0410"
    INDEX 01 00:29:66
  TRACK 29 AUDIO
    TITLE "0:"
    INDEX 01 00:33:38
  TRACK 30 AUDIO
    TITLE "5:cjc081_0411"
    INDEX 01 00:34:06
  TRACK 31 AUDIO
    TITLE "0:"
    INDEX 01 00:35:41
  TRACK 32 AUDIO
    TITLE "6:cjc081_0412"
    INDEX 01 00:36:11
  TRACK 33 AUDIO
    TITLE "0:"
    INDEX 01 00:39:00
  TRACK 34 AUDIO
    TITLE "5:cjc081_0413"
    INDEX 01 00:39:45
  TRACK 35 AUDIO
    TITLE "0:"
    INDEX 01 00:41:02
  TRACK 36 AUDIO
    TITLE "6:cjc081_0414"
    INDEX 01 00:41:49
  TRACK 37 AUDIO
    TITLE "0:"
    INDEX 01 00:42:61
  TRACK 38 AUDIO
    TITLE "5:cjc081_0415"
    INDEX 01 00:43:31
  TRACK 39 AUDIO
    TITLE "0:"
    INDEX 01 00:44:36
  TRACK 40 AUDIO
    TITLE "6:cjc081_0416"
    INDEX 01 00:45:04
  TRACK 41 AUDIO
    TITLE "0:"
    INDEX 01 00:47:52
  TRACK 42 AUDIO
    TITLE "5:cjc081_0417"
    INDEX 01 00:48:20
  TRACK 43 AUDIO
    TITLE "0:"
    INDEX 01 00:49:47
  TRACK 44 AUDIO
    TITLE "6:cjc081_0418"
    INDEX 01 00:50:17
  TRACK 45 AUDIO
    TITLE "0:"
    INDEX 01 00:51:28
  TRACK 46 AUDIO
    TITLE "5:cjc081_0419"
    INDEX 01 00:51:69
  TRACK 47 AUDIO
    TITLE "0:"
    INDEX 01 00:53:25
  TRACK 48 AUDIO
    TITLE "6:cjc081_0420"
    INDEX 01 00:53:70
  TRACK 49 AUDIO
    TITLE "0:"
    INDEX 01 00:55:36
  TRACK 50 AUDIO
    TITLE "5:cjc081_0421"
    INDEX 01 00:56:04
  TRACK 51 AUDIO
    TITLE "0:"
    INDEX 01 00:57:58
  TRACK 52 AUDIO
    TITLE "6:cjc081_0422"
    INDEX 01 00:58:28
  TRACK 53 AUDIO
    TITLE "0:"
    INDEX 01 00:59:61
  TRACK 54 AUDIO
    TITLE "5:cjc081_0423"
    INDEX 01 01:00:29
  TRACK 55 AUDIO
    TITLE "0:"
    INDEX 01 01:01:54
  TRACK 56 AUDIO
    TITLE "6:cjc081_0424"
    INDEX 01 01:02:28
  TRACK 57 AUDIO
    TITLE "0:"
    INDEX 01 01:04:09
  TRACK 58 AUDIO
    TITLE "5:cjc081_0425"
    INDEX 01 01:04:50
  TRACK 59 AUDIO
    TITLE "0:"
    INDEX 01 01:06:00
  TRACK 60 AUDIO
    TITLE "6:cjc081_0426"
    INDEX 01 01:06:45
  TRACK 61 AUDIO
    TITLE "0:"
    INDEX 01 01:10:06
  TRACK 62 AUDIO
    TITLE "7:cjc081_0427"
    INDEX 01 01:11:43
  TRACK 63 AUDIO
    TITLE "0:"
    INDEX 01 01:22:31
